<svg id="Layer_1" xmlns="http://www.w3.org/2000/svg" viewBox="28.01 32.49 39.97 31.03"><defs><style>.cls-1{fill:#fff;}.cls-2{fill:#20a056;}</style></defs><path class="cls-1" d="M52.37,32.58c-.24-.11-.49-.12-.73-.03-.12,.04-.34,.24-.65,.58-.31,.34-.65,.71-.99,1.12-.34,.4-.78,.82-1.3,1.24-.52,.42-1.03,.72-1.54,.91-.47,.18-.91,.24-1.33,.19-1.38-.11-2.56-.14-3.53-.08-.97,.06-1.96,.27-2.96,.64-1.73,.65-3.48,1.94-5.27,3.89-.37,.4-.63,.7-.79,.9l-.78-1.46c.32-.59,.4-1.3,.15-1.98-.46-1.24-1.84-1.87-3.08-1.4-1.24,.47-1.87,1.85-1.4,3.09,.3,.81,1,1.35,1.79,1.5l11.35,21.09c.34,.63,1.08,.89,1.73,.65,.06-.02,.12-.05,.18-.08,.68-.37,.94-1.22,.57-1.91l-4.56-8.48c1.8-1.92,3.5-3.19,5.11-3.79,.68-.25,1.39-.4,2.11-.44,.73-.04,1.35-.02,1.87,.07,.52,.08,1.11,.12,1.77,.1,.66-.01,1.28-.13,1.85-.34,1.44-.54,2.96-1.73,4.56-3.56,.2-.23,.34-.42,.41-.59,.07-.17,.06-.37-.03-.6l-4-10.69c-.09-.24-.26-.42-.5-.53h0Z"></path><g><path class="cls-2" d="M48.11,50.04c-.24-.04-.53-.06-.85-.06l-.13,7.21c-.01,.6,.43,1.11,1.01,1.2,.05,0,.11,.01,.16,.02,.66,.01,1.2-.51,1.21-1.17l.13-7.08c-.55,0-1.07-.04-1.54-.11Z"></path><path class="cls-2" d="M47.91,34.5c.46-.36,.83-.73,1.13-1.07,.02-.03,.04-.05,.07-.08-1.1-.16-2.13,.59-2.3,1.69,0,.04,0,.09-.01,.13,.35-.14,.73-.37,1.12-.68h0Z"></path><path class="cls-2" d="M67.84,39.49c-.13-.18-.31-.29-.53-.33-.11-.02-.35,.04-.72,.16-.38,.12-.77,.26-1.19,.42-.42,.16-.91,.28-1.47,.38-.56,.09-1.06,.1-1.51,.03-.42-.07-.77-.2-1.07-.41-.98-.66-1.83-1.16-2.57-1.53-.74-.36-1.56-.61-2.45-.75-.17-.03-.34-.04-.52-.06l2.23,5.97c.25,.67,.14,1.2,.01,1.52-.13,.31-.34,.62-.64,.96-.91,1.04-1.79,1.87-2.65,2.53,.08,.01,.17,.02,.25,.03,.61,.09,1.19,.28,1.74,.55s1,.55,1.35,.82c.35,.28,.77,.55,1.27,.81,.49,.26,.99,.44,1.5,.52,1.29,.2,2.9-.04,4.85-.74,.24-.08,.43-.17,.55-.27,.12-.1,.2-.25,.23-.46l1.48-9.56c.03-.22-.02-.42-.15-.6h0Z"></path></g></svg>
