<svg id="Layer_1" xmlns="http://www.w3.org/2000/svg" viewBox="28.03 28 40 39.97"><defs><style>.cls-1{fill:#fff;}.cls-2{fill:#20a056;}</style></defs><path class="cls-2" d="M53.08,29.17c0-.65-.53-1.17-1.17-1.17h-7.81c-.65,0-1.17,.53-1.17,1.17v1.95h10.16v-1.95Z"></path><path class="cls-1" d="M66.83,65.66h-.47v-11.33c0-.44-.25-.85-.65-1.05l-2.87-1.43v13.81h-2.34v-17.58c0-.39-.2-.76-.52-.98l-7.03-4.69c-.36-.24-.82-.26-1.2-.06-.38,.21-.62,.6-.62,1.03v22.26h-2.34v-22.27c0-1.3,.71-2.49,1.86-3.1,.51-.27,1.08-.42,1.66-.42,.7,0,1.37,.21,1.95,.59l1.17,.78v-6.61c0-.65-.53-1.17-1.17-1.17h-12.5c-.65,0-1.17,.53-1.17,1.17v1.33h1.95c1.94,0,3.52,1.58,3.52,3.52v26.18h-2.34v-26.18c0-.65-.53-1.17-1.17-1.17h-7.03c-.65,0-1.17,.53-1.17,1.17v15.62h2.73c1.94,0,3.52,1.58,3.52,3.52v7.03h-2.34v-7.03c0-.65-.53-1.17-1.17-1.17h-6.25c-.65,0-1.17,.53-1.17,1.17v7.03h-.47c-.65,0-1.17,.53-1.17,1.17s.53,1.17,1.17,1.17h37.66c.65,0,1.17-.53,1.17-1.17s-.53-1.17-1.17-1.17h0Zm-12.19-13.67c0-.65,.53-1.17,1.17-1.17s1.17,.53,1.17,1.17v2.34c0,.65-.53,1.17-1.17,1.17s-1.17-.53-1.17-1.17v-2.34Zm0,7.03c0-.65,.53-1.17,1.17-1.17s1.17,.53,1.17,1.17v2.34c0,.65-.53,1.17-1.17,1.17s-1.17-.53-1.17-1.17v-2.34Zm-14.45-7.03c0,.65-.53,1.17-1.17,1.17s-1.17-.53-1.17-1.17v-2.34c0-.65,.53-1.17,1.17-1.17s1.17,.53,1.17,1.17v2.34Zm0-7.03c0,.65-.53,1.17-1.17,1.17s-1.17-.53-1.17-1.17v-2.34c0-.65,.53-1.17,1.17-1.17s1.17,.53,1.17,1.17v2.34Zm-7.42,17.97c0-.65,.53-1.17,1.17-1.17s1.17,.53,1.17,1.17v2.73h-2.34v-2.73h0Z"></path></svg>
