<svg id="Layer_1" xmlns="http://www.w3.org/2000/svg" viewBox="27.99 31.7 40 34.52"><defs><style>.cls-1{fill:#fff;}.cls-2{fill:#20a056;}</style></defs><g><path class="cls-2" d="M36.97,40.18h6.11v2.56h-6.11v-2.56Z"></path><path class="cls-2" d="M36.97,46.02h6.11v2.56h-6.11v-2.56Z"></path><path class="cls-2" d="M36.97,51.85h6.11v2.56h-6.11v-2.56Z"></path><path class="cls-2" d="M36.97,57.68h6.11v2.56h-6.11v-2.56Z"></path></g><path class="cls-1" d="M65.28,63.67v-22.26c0-.7-.58-1.28-1.28-1.28l-15.96,.02c-.71,0-1.28,.57-1.28,1.28v22.24h-13.47v-25.39l13.47-3.62v2.91h2.56v-4.59c0-.83-.81-1.45-1.62-1.24l-16.04,4.31c-.56,.15-.95,.66-.95,1.24v26.37h-2.72v2.56h40v-2.56h-2.72Zm-6.25-5.9v2.4h-6.11v-2.4h6.11Zm-6.11-3.44v-2.4h6.11v2.4h-6.11Zm6.11-5.83h-6.11v-2.4h6.11v2.4Z"></path></svg>
