<svg id="Layer_1" xmlns="http://www.w3.org/2000/svg" viewBox="27.99 33.17 40 29.68"><defs><style>.cls-1{fill:#fff;}</style></defs><path class="cls-1" d="M67.56,36.38c-.27-.21-.62-.28-.96-.2l-4.26,1.09c-1.57-.09-6.59-2.02-9.45-3.24l-.06-.02c-3.8-1.36-7.08-1.06-9.83,.89-3.65-1.25-8.33,1.39-9.78,2.29l-3.84-.99c-.33-.09-.69-.01-.96,.2-.27,.21-.43,.54-.43,.88v15.56c0,.61,.5,1.11,1.11,1.11h2.36l10.1,7.97c.79,.76,1.9,1.08,2.97,.87,1.07-.21,1.97-.94,2.4-1.94,.5,.29,1.07,.44,1.65,.44,1.33,0,2.53-.79,3.06-2.01,.5,.29,1.07,.44,1.65,.44,1.33,0,2.53-.79,3.06-2.01,1.04,.59,2.33,.58,3.36-.04,1.03-.62,1.64-1.75,1.61-2.95l2.38-.76h3.18c.61,0,1.11-.5,1.11-1.11v-15.56c0-.35-.16-.68-.44-.89h0Zm-37.33,2.31l1.99,.51-.8,7.4-.55,5.11h-.64v-13.02Zm28.59,16.87c-.44,.42-1.13,.42-1.57,0l-1.57-1.57-6.28-6.29c-.44-.39-1.11-.38-1.53,.04-.42,.42-.44,1.09-.05,1.53l6.29,6.3c.42,.44,.41,1.13-.02,1.56-.43,.43-1.12,.43-1.56,.01l-1.57-1.57-4.73-4.71c-.21-.21-.49-.33-.79-.33s-.58,.12-.79,.33-.33,.49-.33,.79,.12,.58,.33,.79l4.73,4.71c.21,.21,.34,.49,.34,.79,0,.3-.12,.59-.33,.8-.21,.21-.5,.33-.8,.33-.3,0-.58-.13-.79-.34l-4.7-4.71c-.21-.21-.49-.33-.79-.33s-.58,.12-.79,.33-.33,.49-.33,.78,.12,.58,.33,.79l3.14,3.14c.43,.44,.43,1.14,0,1.57-.44,.42-1.13,.42-1.57,0-.03-.03-.06-.06-.1-.09l-9.98-7.85,1.11-10.31,.33-3c1.41-.89,4.17-2.26,6.46-2.22-.68,.79-1.29,1.63-1.82,2.52-1.02,1.73-.52,3.96,1.13,5.1,1.57,1.08,4.44,2.08,8-1l10.57,10.56c.43,.44,.43,1.14,0,1.57h0Zm1.75-2.95c-.05-.07-.11-.14-.17-.2l-10.58-10.58c.44-.51,.89-1.07,1.33-1.71,.2-.24,.3-.55,.26-.86s-.2-.59-.46-.77c-.25-.18-.58-.25-.88-.18-.3,.07-.57,.26-.72,.53-1.97,2.79-4.92,5.71-7.82,3.73-.68-.48-.88-1.42-.44-2.13,.72-1.29,1.66-2.44,2.78-3.4,.04-.03,.07-.05,.1-.08,2.22-1.78,4.89-2.05,8.13-.89,.84,.36,6.44,2.73,9.37,3.29l.98,12.66-1.87,.58h0Zm5.22-.9h-1.19l-.97-12.48,2.15-.54v13.02h0Z"></path></svg>
