<svg id="Layer_1" xmlns="http://www.w3.org/2000/svg" viewBox="28 28 40 40"><defs><style>.cls-1{fill:#fff;}</style></defs><path class="cls-1" d="M61.69,28h-27.37c-3.48,0-6.32,3.07-6.32,6.83v17.28c0,3.77,2.83,6.83,6.32,6.83h8.22l4.42,8.43c.2,.39,.6,.63,1.04,.63s.84-.24,1.04-.63l4.42-8.43h8.22c3.48,0,6.32-3.07,6.32-6.83v-17.28c0-3.77-2.83-6.83-6.32-6.83h0Zm3.98,24.11c0,2.48-1.78,4.49-3.98,4.49h-8.93c-.43,0-.84,.24-1.04,.63l-3.72,7.08-3.72-7.08c-.2-.39-.6-.63-1.04-.63h-8.93c-2.19,0-3.98-2.02-3.98-4.49v-17.28c0-2.48,1.78-4.49,3.98-4.49h27.37c2.19,0,3.98,2.02,3.98,4.49v17.28Z"></path><path class="cls-1" d="M51.21,41.14c.65-.78,1.05-1.78,1.05-2.88,0-2.47-2.01-4.48-4.48-4.48s-4.48,2.01-4.48,4.48c0,1.1,.4,2.1,1.05,2.88-2.6,1.2-4.41,3.83-4.41,6.87v.05c0,1.16,.95,2.11,2.11,2.11h11.46c1.16,0,2.11-.95,2.11-2.11v-.05c0-3.04-1.81-5.68-4.41-6.87h0Zm-3.43-5.02c1.18,0,2.14,.96,2.14,2.14s-.96,2.14-2.14,2.14-2.14-.96-2.14-2.14,.96-2.14,2.14-2.14h0Zm-5.5,11.7c.1-2.79,2.4-5.03,5.21-5.03h.56c2.81,0,5.11,2.24,5.21,5.03h-10.99Z"></path></svg>
