<svg id="Layer_1" xmlns="http://www.w3.org/2000/svg" viewBox="28 26.95 40 42.1"><defs><style>.cls-1{fill:#fff;}.cls-2{fill:#20a056;}</style></defs><rect class="cls-1" x="28" y="50.59" width="40" height="6.15" rx="1.31" ry="1.31"></rect><path class="cls-1" d="M62.54,59.82l-.86,3.08v6.15h-27.35v-6.15l-.84-3.08h29.06Z"></path><circle class="cls-1" cx="48" cy="33.52" r="6.57"></circle><path class="cls-2" d="M49.24,47.53l-1.24,1.24-1.24-1.24,.7-4.83c.18,.03,.35,.03,.54,.03s.35,0,.54-.03l.7,4.83Z"></path><path class="cls-1" d="M57.2,45.82v6.11c0,.72-.59,1.31-1.31,1.31h-15.78c-.72,0-1.31-.59-1.31-1.31v-6.11c0-2.34,.97-4.46,2.52-5.97,.97,1.04,2.18,1.84,3.55,2.33l-.8,5.63c-.05,.41,.08,.82,.37,1.12l2.63,2.63c.26,.25,.59,.38,.93,.38s.67-.13,.93-.38l2.63-2.63c.29-.3,.42-.71,.37-1.12l-.8-5.63c1.37-.49,2.58-1.29,3.55-2.33,1.55,1.51,2.52,3.63,2.52,5.97h0Z"></path><path class="cls-1" d="M33.54,53.25c-.73,0-1.31-.59-1.31-1.31v-11.84c0-.35,.14-.68,.38-.93l2.63-2.63c.51-.51,1.34-.51,1.86,0s.51,1.34,0,1.86l-2.25,2.25v11.29c0,.73-.59,1.31-1.31,1.31h0Z"></path><path class="cls-1" d="M36.17,40.1c-1.45,0-2.63-1.18-2.63-2.63s1.18-2.63,2.63-2.63,2.63,1.18,2.63,2.63-1.18,2.63-2.63,2.63Z"></path><path class="cls-1" d="M62.46,53.25c-.73,0-1.31-.59-1.31-1.31v-11.29l-2.25-2.25c-.51-.51-.51-1.34,0-1.86s1.34-.51,1.86,0l2.63,2.63c.25,.25,.38,.58,.38,.93v11.83c0,.73-.59,1.31-1.31,1.31h0Z"></path><path class="cls-1" d="M59.83,40.1c-1.45,0-2.63-1.18-2.63-2.63s1.18-2.63,2.63-2.63,2.63,1.18,2.63,2.63-1.18,2.63-2.63,2.63Z"></path></svg>
