<svg id="Layer_1" xmlns="http://www.w3.org/2000/svg" viewBox="28 33 39.98 30"><defs><style>.cls-1{fill:#fff;}</style></defs><path class="cls-1" d="M59.67,44.71v-8.38c0-1.84-1.49-3.33-3.33-3.33H31.33c-1.84,0-3.33,1.49-3.33,3.33v16.67c0,1.84,1.49,3.33,3.33,3.33h18.69c1.09,3.84,4.62,6.67,8.81,6.67,1.61,0,3.2-.42,4.58-1.23,.4-.23,.53-.74,.3-1.14-.23-.4-.74-.54-1.14-.3-1.14,.66-2.43,1-3.75,1-4.14,0-7.5-3.36-7.5-7.5s3.36-7.5,7.5-7.5,7.5,3.36,7.5,7.5v.83c0,.92-.75,1.67-1.67,1.67s-1.67-.75-1.67-1.67v-3.33c0-.46-.37-.83-.83-.83-.23,0-.42,.09-.57,.24-.74-.66-1.7-1.07-2.76-1.07-2.3,0-4.17,1.87-4.17,4.17s1.87,4.17,4.17,4.17c1.24,0,2.35-.56,3.11-1.42,.6,.86,1.6,1.42,2.72,1.42,1.84,0,3.33-1.49,3.33-3.33v-.83c0-4.77-3.67-8.7-8.33-9.13Zm-3.33-10.04s.06,.02,.1,.02l-11.91,9.78c-.42,.27-1.04,.21-1.31,.04l-11.97-9.82s.06-.02,.1-.02h25Zm-6.67,19.17c0,.28,.02,.56,.04,.83H31.33c-.92,0-1.67-.75-1.67-1.67v-16.67c0-.24,.05-.46,.14-.66l12.41,10.18c.48,.32,1.04,.48,1.61,.48s1.09-.16,1.56-.45c.05-.03,.09-.06,.13-.09l12.34-10.13c.09,.2,.14,.43,.14,.66v8.38c-4.66,.42-8.33,4.35-8.33,9.13h0Zm9.17,2.5c-1.38,0-2.5-1.12-2.5-2.5s1.12-2.5,2.5-2.5,2.5,1.12,2.5,2.5-1.12,2.5-2.5,2.5Z"></path></svg>
