<svg id="Layer_1" xmlns="http://www.w3.org/2000/svg" viewBox="27.99 30.52 40 34.98"><defs><style>.cls-1{fill:#fff;}</style></defs><path class="cls-1" d="M67.65,32.14c-3.49-.65-7.28,.48-9.94,3.33-2.44,2.63-3.36,6.11-2.78,9.33,2.31-1.38,6.24-4.27,9.38-9.27,0,0-2.24,6.48-7.89,10.25,3.1,.18,6.3-1,8.62-3.49,2.65-2.85,3.51-6.72,2.61-10.15h0Z"></path><path class="cls-1" d="M49.46,34.46c1.9,.3,3.63,1.56,4.47,3.5,.77,1.78,.61,3.73-.27,5.26-.93-1.12-2.41-3.31-3.11-6.43,0,0-.03,3.71,2.17,6.66-1.62-.47-3.03-1.65-3.76-3.34-.84-1.93-.58-4.06,.51-5.65h0Z"></path><g><path class="cls-1" d="M53.52,50.94c-.2-.2-.43-.37-.69-.52l-3.46,5.09c.22,.18,.47,.34,.75,.45,.37,.16,.78,.24,1.21,.24s.83-.08,1.2-.24c.38-.16,.71-.38,.98-.67,.28-.28,.5-.61,.66-.98,.16-.37,.24-.77,.24-1.2s-.08-.83-.24-1.2c-.16-.38-.38-.71-.66-.98h0Z"></path><path class="cls-1" d="M46.98,55.66c-.22-.37-.39-.77-.51-1.2-.12-.43-.18-.87-.18-1.33s.06-.91,.18-1.34c.12-.43,.29-.83,.51-1.2,.22-.37,.48-.71,.79-1.02,.31-.31,.65-.57,1.02-.79,.37-.22,.77-.38,1.2-.51,.43-.12,.87-.18,1.33-.18s.91,.06,1.34,.18c.43,.12,.83,.29,1.2,.51,.02,0,.03,.02,.05,.03l.98-1.44c.58-.85-.13-1.92-1.25-1.9l-5.48,.08c-.79,.01-1.44-.54-1.45-1.24l-.17-12.55c-.02-.7-.67-1.25-1.46-1.24l-3.76,.05-3.76,.05c-.79,.01-1.42,.58-1.42,1.28l.17,12.55c0,.7-.62,1.27-1.42,1.28l-5.48,.08c-1.12,.02-1.8,1.11-1.19,1.94l12.35,17.16c.57,.79,1.89,.78,2.44-.03l5.26-7.74c-.18-.14-.34-.28-.51-.44-.31-.31-.57-.65-.79-1.02h0Zm-7.12-1.34c.16,.37,.38,.7,.67,.98,.28,.28,.61,.5,.98,.67,.37,.16,.78,.24,1.21,.24s.83-.08,1.22-.25,.73-.4,1.01-.71l1.03,1.7c-.45,.39-.96,.69-1.52,.89-.56,.21-1.14,.31-1.74,.31-.46,0-.91-.06-1.33-.18s-.83-.29-1.2-.51c-.37-.22-.71-.48-1.02-.79s-.57-.65-.79-1.02c-.22-.37-.39-.77-.51-1.2-.12-.43-.18-.87-.18-1.33s.06-.91,.18-1.34c.12-.43,.29-.83,.51-1.2,.22-.37,.48-.71,.79-1.02,.31-.31,.65-.57,1.02-.79,.37-.22,.77-.39,1.2-.51,.43-.12,.87-.18,1.33-.18,.6,0,1.18,.1,1.74,.31,.56,.2,1.07,.51,1.52,.9l-1.03,1.7c-.28-.31-.62-.54-1.01-.71s-.8-.25-1.22-.25-.83,.08-1.21,.24c-.37,.16-.7,.38-.98,.66-.28,.28-.5,.61-.67,.98-.16,.38-.24,.78-.24,1.2s.08,.82,.24,1.2Z"></path><path class="cls-1" d="M52.53,50.28c-.38-.16-.78-.24-1.2-.24s-.83,.08-1.21,.24c-.37,.16-.7,.38-.98,.66-.28,.28-.5,.61-.67,.98-.16,.38-.24,.78-.24,1.2s.08,.82,.24,1.2c.16,.37,.38,.7,.67,.98,.07,.07,.15,.14,.24,.21l3.46-5.09c-.1-.05-.19-.1-.29-.14h0Z"></path><path class="cls-1" d="M57.68,57.76c.02-.05,.05-.1,.09-.14s.08-.07,.14-.09c.05-.02,.11-.03,.17-.03h.43c.18,0,.34-.03,.5-.1,.16-.07,.29-.16,.41-.27,.12-.12,.21-.25,.27-.41,.07-.16,.1-.32,.1-.5s-.03-.34-.1-.5c-.07-.16-.16-.29-.27-.41s-.25-.21-.41-.27c-.16-.07-.32-.1-.5-.1h-1.53v.85h1.53c.06,0,.11,.01,.17,.03,.05,.02,.1,.05,.14,.09s.07,.08,.09,.14c.02,.05,.03,.11,.03,.17s-.01,.12-.03,.17-.05,.1-.09,.14c-.04,.04-.08,.07-.14,.09-.05,.02-.11,.03-.17,.03h-.43c-.18,0-.34,.03-.5,.1-.16,.07-.29,.16-.41,.27-.12,.12-.21,.25-.27,.41-.07,.16-.1,.32-.1,.5v1.28h2.88v-.85h-2.02v-.43c0-.06,0-.11,.03-.17h0Z"></path><path class="cls-1" d="M56.17,51.79c-.12-.43-.29-.83-.51-1.2-.22-.37-.48-.71-.79-1.02-.29-.29-.61-.54-.97-.76h0l-1.09,1.61h0c.26,.14,.49,.31,.69,.52,.28,.28,.5,.61,.66,.98,.16,.38,.24,.78,.24,1.2s-.08,.82-.24,1.2c-.16,.37-.38,.7-.66,.98s-.61,.5-.98,.67c-.38,.16-.78,.24-1.2,.24s-.83-.08-1.21-.24c-.27-.12-.53-.27-.75-.45h0l-1.09,1.61c.17,.13,.34,.24,.51,.35,.37,.22,.77,.39,1.2,.51,.43,.12,.87,.18,1.33,.18s.91-.06,1.34-.18c.43-.12,.83-.29,1.2-.51,.37-.22,.71-.48,1.02-.79,.31-.31,.57-.65,.79-1.02,.22-.37,.38-.77,.51-1.2,.12-.43,.18-.87,.18-1.33s-.06-.91-.18-1.34h0Z"></path></g></svg>
