<svg id="Layer_1" xmlns="http://www.w3.org/2000/svg" viewBox="28 31.09 40 33.83"><defs><style>.cls-1{fill:#fff;}.cls-2{fill:#20a056;}</style></defs><path class="cls-1" d="M64.04,54.63h-1.6c.04-.23,.14-.5,.33-.8,.6-.93,.72-1.74,.84-2.46,.07-.45,.14-.88,.32-1.38,.16-.44,.47-.79,.79-1.07l1.1,2.72,2.18-.88-3.94-9.74-.96,.19c-.11,.02-2.7,.58-4.31,3.57-1.18,2.19-3.84,3.88-7.07,4.56l-.64-2.36-1.15,.34c-1.9,.55-3,1.05-4.7,2.06l-.03,.04-4.46,5.99h-3.66s-2.05-2.8-3.23-4.36c-.65,.25-1.23,.61-1.73,1.09-1.27,1.21-1.78,3.21-1.37,5.04l-2.75,1.82,3.25,5.88h1.58l1.22-1.37c1.23-1.38,3-2.18,4.85-2.18,1.56,0,3.07,.57,4.26,1.6,1.35,1.17,2.66,1.81,3.89,1.95,1.41,.16,2.27-.19,3.41-.55,.87-.28,1.53-.56,2.66-.42,.48,.06,.91,.09,1.32,.09,2.24,0,3.32-.93,4.16-2.32,.29-.48,.7-.76,1.09-.88,1.02-.32,1.96,.87,1.96,.87l2.22-1.09c.4,1.09,.6,2.22,.6,3.38h2.35c0-1.57-.29-3.1-.88-4.56l-1.89-4.77h0Z"></path><path class="cls-2" d="M38.27,53.04h1.28l3.79-5.07c1.6-2.09,3.79-4.95,3.79-8.66,0-4.53-3.68-8.22-8.21-8.22s-8.22,3.68-8.22,8.21c0,3.7,2.19,6.57,3.79,8.66l3.79,5.07h0Zm-3.27-13.73c0-2.16,1.75-3.91,3.91-3.91s3.91,1.75,3.91,3.91-1.75,3.91-3.91,3.91-3.91-1.75-3.91-3.91Z"></path><circle class="cls-1" cx="38.91" cy="39.31" r="1.56"></circle></svg>
