<svg id="Layer_1" xmlns="http://www.w3.org/2000/svg" viewBox="27.99 29.23 40.01 37.55"><defs><style>.cls-1{fill:#fff;}</style></defs><g><path class="cls-1" d="M56.76,42.31c0-1.87-.86-3.58-2.36-4.69-1.13-.84-2.47-1.23-3.83-1.14-.5-4.08-3.98-7.25-8.2-7.25s-7.7,3.17-8.19,7.25c-1.35-.08-2.7,.31-3.83,1.14-1.5,1.11-2.36,2.82-2.36,4.69s.9,3.59,2.34,4.68c-1.21,1.4-1.88,3.18-1.88,5.08,0,4.3,3.5,7.8,7.8,7.8,1.86,0,3.63-.65,5.02-1.83v-5.25c-.09-.05-.19-.12-.27-.2l-3.99-3.99c-.43-.43-.43-1.12,0-1.55s1.12-.43,1.55,0l2.71,2.71v-11.57c0-.61,.49-1.1,1.1-1.1s1.1,.49,1.1,1.1v7.39l1.64-1.64c.43-.43,1.12-.43,1.55,0,.43,.43,.43,1.12,0,1.55l-3.15,3.15s-.03,.03-.05,.04v9.36c1.39,1.18,3.15,1.83,5.02,1.83,4.3,0,7.8-3.5,7.8-7.8,0-1.89-.67-3.68-1.88-5.08,1.44-1.09,2.34-2.81,2.34-4.68h0Z"></path><path class="cls-1" d="M42.79,57.38c-.28,.01-.55,.01-.82,0-.22,.23-.45,.45-.69,.66v7.64c0,.61,.49,1.1,1.1,1.1s1.1-.49,1.1-1.1v-7.64c-.24-.21-.47-.42-.69-.66Z"></path></g><path class="cls-1" d="M55.02,59.86c-.25,0-.51,0-.76,0-.2,.17-.42,.34-.64,.49v5.62c0,.45,.46,.81,1.02,.81s1.02-.36,1.02-.81v-5.62c-.22-.15-.44-.31-.64-.49h0Z"></path><path class="cls-1" d="M68,44.05c0-1.74-.8-3.33-2.19-4.36-1.05-.77-2.3-1.14-3.56-1.06-.46-3.79-3.7-6.74-7.61-6.74-.74,0-1.46,.11-2.14,.31,.21,.41,.4,.84,.56,1.27,1.14,.28,2.22,.79,3.18,1.5,2.3,1.7,3.62,4.32,3.62,7.18,0,1.39-.34,2.75-.95,3.98,.04,.3-.04,.63-.27,.86l-.28,.28c.67,1.44,1.04,3.01,1.04,4.63,0,2.84-1.1,5.42-2.88,7.36,1.13,.7,2.45,1.09,3.82,1.09,3.99,0,7.24-3.25,7.24-7.24,0-1.76-.62-3.42-1.75-4.72,1.34-1.01,2.17-2.61,2.17-4.34h0Z"></path></svg>
