<svg id="Layer_1" xmlns="http://www.w3.org/2000/svg" viewBox="28 28.26 40 39.48"><defs><style>.cls-1{fill:#fff;}</style></defs><path class="cls-1" d="M63.56,28.26h-31.12c-2.44,0-4.44,2-4.44,4.44v25.78c0,2.44,2,4.44,4.44,4.44h12.45v.89c0,.31,.18,.58,.45,.76s.58,.18,.84,.05l2.8-1.38,2,4c.09,.22,.31,.35,.53,.45,.09,.05,.18,.05,.27,.05,.13,0,.27-.05,.4-.09l3.96-2c.45-.22,.62-.76,.4-1.2l-.76-1.51h7.78c2.45,0,4.44-2,4.44-4.44v-25.79c0-2.44-2-4.44-4.44-4.44h0Zm-11.42,37.38l-2-3.96c-.18-.31-.49-.49-.8-.49-.13,0-.27,.05-.4,.09l-2.27,1.11v-10.67l8.53,6.4-2.31,1.16c-.45,.22-.62,.76-.4,1.2l2,4-2.36,1.16h0Zm14.09-7.15c0,1.47-1.2,2.67-2.67,2.67h-8.67l-.35-.71,2.8-1.38c.27-.13,.45-.4,.49-.71,.05-.31-.09-.62-.35-.8l-11.11-8.36c-.27-.22-.62-.22-.93-.09-.31,.13-.49,.45-.49,.8v11.25h-12.5c-1.47,0-2.67-1.2-2.67-2.67v-19.56h36.45v19.56Zm0-21.33H29.78v-4.45c0-1.47,1.2-2.67,2.67-2.67h31.12c1.47,0,2.67,1.2,2.67,2.67v4.44h0Zm-32-3.55c0,.49-.4,.89-.89,.89s-.89-.4-.89-.89,.4-.89,.89-.89,.89,.4,.89,.89h0Zm4.44,0c0,.49-.4,.89-.89,.89s-.89-.4-.89-.89,.4-.89,.89-.89,.89,.4,.89,.89h0Zm4.44,0c0,.49-.4,.89-.89,.89s-.89-.4-.89-.89,.4-.89,.89-.89,.89,.4,.89,.89h0Zm-.89,11.16c-.22-.45-.05-.98,.4-1.2,.45-.22,.98-.05,1.2,.4l.8,1.6c.22,.45,.05,.98-.4,1.2-.13,.05-.27,.09-.4,.09-.31,0-.62-.18-.8-.49l-.8-1.6Zm8.8,4.27c-.22-.45-.05-.98,.4-1.2l1.6-.8c.45-.22,.98-.05,1.2,.4,.22,.45,.05,.98-.4,1.2l-1.6,.8c-.13,.05-.27,.09-.4,.09-.31,.05-.62-.18-.8-.49h0Zm-9.11,4.58c.22,.45,.05,.98-.4,1.2l-1.6,.8c-.13,.05-.27,.09-.4,.09-.31,0-.62-.18-.8-.49-.22-.45-.05-.98,.4-1.2l1.6-.8c.45-.22,.98-.05,1.2,.4h0Zm5.6-8.27l.58-1.69c.13-.49,.67-.71,1.11-.58s.71,.67,.58,1.11l-.58,1.69c-.13,.36-.49,.62-.84,.62-.09,0-.18,0-.27-.05-.45-.13-.71-.62-.58-1.11h0Zm-9.25,3.25c.13-.49,.67-.71,1.11-.58l1.69,.58c.45,.13,.71,.67,.58,1.11-.13,.35-.49,.62-.84,.62-.09,0-.18,0-.27-.05l-1.69-.58c-.49-.13-.76-.62-.58-1.11h0Z"></path></svg>
