<svg width="30" height="30" viewBox="0 0 30 30" fill="none" xmlns="http://www.w3.org/2000/svg">
<path d="M27.7805 0H2.21283C0.992162 0 0 0.968527 0 2.16334V27.8352C0 29.03 0.992162 30 2.21283 30H27.7805C29.0034 30 30 29.03 30 27.8352V2.16334C30 0.968527 29.0042 0 27.7805 0Z" fill="black"/>
<path d="M4.44488 11.2464H8.89929V25.5628H4.44488V11.2464ZM6.67319 4.12988C8.09656 4.12988 9.25237 5.28563 9.25237 6.70967C9.25237 8.13372 8.09656 9.2902 6.67319 9.2902C5.24981 9.2902 4.0918 8.13445 4.0918 6.70967C4.0918 5.28489 5.24391 4.12988 6.67319 4.12988Z" fill="white"/>
<path d="M11.6907 11.2464H15.9556V13.2033H16.0168C16.6102 12.0778 18.0616 10.8911 20.2265 10.8911C24.7318 10.8911 25.5647 13.8557 25.5647 17.7113V25.5627H21.1155V18.601C21.1155 16.9411 21.0867 14.805 18.8031 14.805C16.5195 14.805 16.1348 16.6146 16.1348 18.4823V25.5627H11.6907V11.2464Z" fill="white"/>
</svg>
