<svg id="Layer_1" xmlns="http://www.w3.org/2000/svg" viewBox="27.63 27.63 40.76 40.75"><defs><style>.cls-1{fill:#fff;stroke:#fff;stroke-miterlimit:10;stroke-width:.75px;}</style></defs><path class="cls-1" d="M66.06,28H29.94c-1.07,0-1.94,.87-1.94,1.94v29.67c0,1.07,.87,1.94,1.94,1.94h10.47c-1.16,1.07-1.87,2.59-1.87,4.25v.91c0,.71,.58,1.29,1.29,1.29h16.35c.71,0,1.29-.58,1.29-1.29v-.91c0-1.66-.72-3.18-1.87-4.25h10.47c1.07,0,1.94-.87,1.94-1.94V29.94c0-1.07-.87-1.94-1.94-1.94h0Zm-36.12,1.29h36.12c.36,0,.64,.29,.64,.64v3.23H29.29v-3.22c0-.36,.29-.64,.64-.64h0Zm23.54,24.54c0,.12-.17,.17-.24,.08-.41-.55-1.17-1.67-1.62-2.91-.08-.22-.27-.38-.5-.41-.04,0-.07,0-.1,0-.2,0-.38,.09-.5,.25-1.25,1.58-5.32,2.72-7.55,3.14-.25,0-.44-.2-.44-.44v-1.18c0-3.02,2.46-5.48,5.48-5.48s5.48,2.46,5.48,5.48v1.49h0Zm-10.35,1.4s.06,0,.09,0c.95-.18,5.34-1.1,7.57-2.89,.48,1.01,1.07,1.86,1.42,2.34,.17,.23,.4,.38,.66,.48v1.11c0,2.68-2.18,4.86-4.86,4.86s-4.86-2.18-4.86-4.86v-1.03Zm13.04,10.56v.91h-2.37v-.91c0-.36-.29-.64-.64-.64s-.64,.29-.64,.64v.91h-9.03v-.91c0-.36-.29-.64-.64-.64s-.64,.29-.64,.64v.91h-2.37v-.91c0-2.22,1.66-4.14,3.86-4.46l.69-.1c1.02,.75,2.27,1.19,3.63,1.19s2.61-.45,3.63-1.19l.69,.1c2.2,.33,3.86,2.24,3.86,4.46h0Zm9.89-5.54h-12.7c-.18-.06-.37-.1-.56-.14,.85-1.06,1.36-2.39,1.36-3.85v-1.26c.37-.26,.62-.69,.62-1.17v-1.49c0-3.73-3.04-6.77-6.78-6.77s-6.78,3.04-6.78,6.77v1.18c0,.53,.24,1,.62,1.32v1.43c0,1.45,.51,2.79,1.36,3.85-.19,.04-.38,.09-.56,.14h-12.7c-.36,0-.64-.29-.64-.64v-25.16h37.41v25.16c0,.36-.29,.64-.64,.64h0Z"></path><circle class="cls-1" cx="62.83" cy="31.23" r=".97"></circle><circle class="cls-1" cx="59.29" cy="31.23" r=".97"></circle><circle class="cls-1" cx="55.74" cy="31.23" r=".97"></circle><path class="cls-1" d="M59.61,37.03h-23.22c-.36,0-.64,.29-.64,.64s.29,.64,.64,.64h23.22c.36,0,.64-.29,.64-.64s-.29-.64-.64-.64Z"></path><path class="cls-1" d="M59.61,39.62h-23.22c-.36,0-.64,.29-.64,.64s.29,.64,.64,.64h23.22c.36,0,.64-.29,.64-.64s-.29-.64-.64-.64Z"></path><path class="cls-1" d="M58.32,42.19h-20.64c-.36,0-.64,.29-.64,.64s.29,.64,.64,.64h20.64c.36,0,.64-.29,.64-.64s-.29-.64-.64-.64h0Z"></path></svg>
