<svg id="Layer_1" xmlns="http://www.w3.org/2000/svg" viewBox="28 30.79 40 34.44"><defs><style>.cls-1{fill:#fff;}</style></defs><path class="cls-1" d="M34.69,64.56c3.07-2.09,6.43-2.89,10.09-2.27l5.86,1.01c2.25,.38,4.31,.26,6.1-.33,3.68-1.23,7.38-5.1,8.35-6.57,1.36-2.04,2.11-4.27,2.58-5.34,.44-1.03,.44-1.76-.02-2.18-.54-.49-1.45-.24-2.13,.14-1.08,.61-2.22,2.37-3.4,4.06-1.52,2.21-4.13,3.52-6.81,3.52h-8.49v-2.34h3.52c6.24,0,9.03-1.17,9.03-2.34,0-.98-1.94-1.43-2.6-1.57-2.56-.59-8.32-.87-12.26-2.62-.71-.31-1.52-.49-2.37-.49-1.34-.01-2.79,.41-4.17,1.48-.01,0-.03,0-.05,.02-.91,.71-2.16,1.74-3.85,3.21-1.43,1.27-2.81,2.89-5.23,4.95l-.84,.73,5.77,7.6,.94-.63h0Z"></path><path class="cls-1" d="M60.35,30.8c-1.97,0-3.28,1.11-4.1,2.24-.78-1.14-2.04-2.24-4.02-2.24-2.93,0-5.23,2.45-5.23,5.58,0,3.38,2.59,5.58,6.51,8.91h0c1.71,1.45,1.93,1.65,2.68,2.3,.55-.47,1.03-.9,3.03-2.59,3.68-3.09,6.34-5.33,6.34-8.63,0-3.13-2.3-5.58-5.23-5.58h0Zm-2.41,11.73c-.28,.36-.65,.6-1.12,.71v.67h-1.09v-.67c-.46-.11-.83-.35-1.1-.71s-.41-.8-.41-1.31v-.3l1.24-.13v.32c0,.31,.07,.55,.22,.73,.15,.18,.35,.27,.61,.27s.45-.07,.6-.22,.22-.34,.22-.59c0-.27-.1-.53-.3-.77s-.5-.54-.91-.87c-.48-.39-.86-.79-1.14-1.18s-.41-.83-.41-1.31c0-.53,.12-.97,.36-1.33s.59-.59,1.03-.7v-.67h1.09v.67c.44,.11,.79,.33,1.04,.69,.25,.35,.38,.8,.38,1.34v.22l-1.24,.13v-.24c0-.32-.06-.57-.18-.74-.12-.17-.29-.25-.52-.25s-.4,.07-.52,.21c-.12,.14-.18,.34-.18,.61s.1,.52,.29,.75c.2,.24,.5,.53,.91,.89,.49,.42,.87,.82,1.15,1.19,.27,.38,.41,.8,.41,1.29s-.14,.94-.42,1.31h0Z"></path></svg>
