<svg id="Layer_1" xmlns="http://www.w3.org/2000/svg" viewBox="28 28 40.01 40.01"><defs><style>.cls-1{fill:#20a056;}.cls-1,.cls-2{fill-rule:evenodd;}.cls-2{fill:#fff;}</style></defs><path class="cls-2" d="M34.38,46.56c.79,0,1.44,.64,1.44,1.44,0,1.19,.96,2.15,2.15,2.15s2.15-.96,2.15-2.15h0c0-.79,.64-1.44,1.44-1.44h5v-3.75c-2.66-.75-4.2-3.51-3.46-6.17,.47-1.68,1.78-2.99,3.46-3.46v-5.18c-9.95,.7-17.86,8.62-18.55,18.56h6.38Z"></path><path class="cls-1" d="M49.44,34.38c0,.79-.64,1.44-1.44,1.44-1.19,0-2.15,.96-2.15,2.15s.96,2.15,2.15,2.15c.79,0,1.44,.64,1.44,1.44v5h3.75c.75-2.66,3.51-4.2,6.17-3.46,1.68,.47,2.99,1.78,3.46,3.46h5.19c-.7-9.95-8.62-17.86-18.56-18.55v6.38Z"></path><path class="cls-2" d="M61.62,49.44c-.79,0-1.44-.64-1.44-1.44,0-1.19-.96-2.15-2.15-2.15s-2.15,.96-2.15,2.15c0,.79-.64,1.44-1.44,1.44h-5v3.75c2.66,.75,4.2,3.51,3.46,6.17-.47,1.68-1.78,2.99-3.46,3.46v5.19c9.94-.7,17.86-8.62,18.55-18.56h-6.38Z"></path><path class="cls-1" d="M46.56,61.62c0-.79,.64-1.44,1.44-1.44,1.19,0,2.15-.96,2.15-2.15s-.96-2.15-2.15-2.15h0c-.79,0-1.43-.64-1.44-1.44v-5h-3.75c-.75,2.66-3.51,4.2-6.17,3.46-1.68-.47-2.99-1.78-3.46-3.46h-5.18c.7,9.94,8.62,17.86,18.56,18.55v-6.38Z"></path></svg>
