<svg fill="none" xmlns="http://www.w3.org/2000/svg" viewBox="0.67 0.5 46.64 35"> <path d="M37.615 14.1617V4.385C37.615 2.23834 35.8766 0.5 33.73 0.5H4.55163C2.40496 0.5 0.666626 2.23834 0.666626 4.385V23.8333C0.666626 25.98 2.40496 27.7183 4.55163 27.7183H26.3566C27.6283 32.1983 31.7466 35.5 36.635 35.5C38.5133 35.5 40.3683 35.01 41.9783 34.065C42.445 33.7967 42.5966 33.2017 42.3283 32.735C42.06 32.2683 41.465 32.105 40.9983 32.385C39.6683 33.155 38.1633 33.5517 36.6233 33.5517C31.7933 33.5517 27.8733 29.6317 27.8733 24.8017C27.8733 19.9717 31.7933 16.0517 36.6233 16.0517C41.4533 16.0517 45.3733 19.9717 45.3733 24.8017V25.77C45.3733 26.8433 44.4983 27.7183 43.425 27.7183C42.3516 27.7183 41.4766 26.8433 41.4766 25.77V21.885C41.4766 21.3483 41.045 20.9167 40.5083 20.9167C40.24 20.9167 40.0183 21.0217 39.8433 21.1967C38.98 20.4267 37.86 19.9483 36.6233 19.9483C33.94 19.9483 31.7583 22.13 31.7583 24.8133C31.7583 27.4967 33.94 29.6783 36.6233 29.6783C38.07 29.6783 39.365 29.025 40.2516 28.0217C40.9516 29.025 42.1183 29.6783 43.425 29.6783C45.5716 29.6783 47.31 27.94 47.31 25.7933V24.825C47.31 19.26 43.0283 14.675 37.5916 14.1733L37.615 14.1617ZM33.73 2.44833C33.73 2.44833 33.8 2.47167 33.8466 2.47167L19.9516 13.8817C19.4616 14.1967 18.7383 14.1267 18.4233 13.9283L4.45829 2.47167C4.45829 2.47167 4.52829 2.44833 4.57496 2.44833H33.7416H33.73ZM25.9483 24.8133C25.9483 25.14 25.9716 25.4667 25.995 25.7817H4.55163C3.47829 25.7817 2.60329 24.9067 2.60329 23.8333V4.385C2.60329 4.105 2.66163 3.84833 2.76662 3.615L17.245 15.4917C17.805 15.865 18.4583 16.0517 19.1233 16.0517C19.7883 16.0517 20.395 15.865 20.9433 15.5267C21.0016 15.4917 21.0483 15.4567 21.095 15.4217L35.4916 3.60333C35.5966 3.83667 35.655 4.105 35.655 4.37333V14.15C30.2183 14.64 25.9366 19.225 25.9366 24.8017L25.9483 24.8133ZM36.6466 27.73C35.0366 27.73 33.73 26.4233 33.73 24.8133C33.73 23.2033 35.0366 21.8967 36.6466 21.8967C38.2566 21.8967 39.5633 23.2033 39.5633 24.8133C39.5633 26.4233 38.2566 27.73 36.6466 27.73Z" fill="white"></path> </svg>
