<svg width="30" height="31" viewBox="0 0 30 31" fill="none" xmlns="http://www.w3.org/2000/svg">
<path d="M15 2.70264C19.0054 2.70264 19.4794 2.71812 21.0614 2.79017C22.5238 2.85686 23.3181 3.10098 23.8468 3.30641C24.5471 3.57852 25.0466 3.90362 25.5718 4.42819C26.097 4.95336 26.4221 5.45292 26.6936 6.15314C26.899 6.68188 27.1431 7.47618 27.2098 8.93855C27.2819 10.52 27.2973 10.9946 27.2973 15C27.2973 19.0054 27.2819 19.4794 27.2098 21.0614C27.1431 22.5238 26.899 23.3181 26.6936 23.8469C26.4215 24.5471 26.0964 25.0466 25.5718 25.5718C25.0466 26.097 24.5471 26.4221 23.8468 26.6936C23.3181 26.899 22.5238 27.1431 21.0614 27.2098C19.48 27.2819 19.0054 27.2974 15 27.2974C10.9945 27.2974 10.52 27.2819 8.93854 27.2098C7.47617 27.1431 6.68187 26.899 6.15313 26.6936C5.45291 26.4215 4.95334 26.0964 4.42818 25.5718C3.90301 25.0466 3.57791 24.5471 3.30639 23.8469C3.10097 23.3181 2.85684 22.5238 2.79016 21.0614C2.71811 19.48 2.70263 19.0054 2.70263 15C2.70263 10.9946 2.71811 10.5206 2.79016 8.93855C2.85684 7.47618 3.10097 6.68188 3.30639 6.15314C3.5785 5.45292 3.90361 4.95336 4.42818 4.42819C4.95275 3.90302 5.45291 3.57792 6.15313 3.30641C6.68187 3.10098 7.47617 2.85686 8.93854 2.79017C10.52 2.71812 10.9945 2.70264 15 2.70264ZM15 0C10.9261 0 10.4152 0.0172674 8.81528 0.0905049C7.21894 0.163147 6.12812 0.416799 5.17425 0.78775C4.18762 1.17121 3.35105 1.68387 2.51745 2.51806C1.68326 3.35225 1.17059 4.18823 0.78714 5.17486C0.416189 6.12873 0.162537 7.21955 0.0898946 8.81589C0.016657 10.4158 -0.000610352 10.9267 -0.000610352 15.0006C-0.000610352 19.0745 0.016657 19.5854 0.0898946 21.1853C0.162537 22.7816 0.416189 23.8725 0.78714 24.8263C1.17059 25.813 1.68326 26.6495 2.51745 27.4831C3.35164 28.3173 4.18762 28.83 5.17425 29.2134C6.12812 29.5844 7.21894 29.838 8.81528 29.9107C10.4152 29.9839 10.9261 30.0012 15 30.0012C19.0739 30.0012 19.5848 29.9839 21.1847 29.9107C22.781 29.838 23.8719 29.5844 24.8257 29.2134C25.8123 28.83 26.6489 28.3173 27.4825 27.4831C28.3167 26.6489 28.8294 25.813 29.2128 24.8263C29.5838 23.8725 29.8374 22.7816 29.9101 21.1853C29.9833 19.5854 30.0006 19.0745 30.0006 15.0006C30.0006 10.9267 29.9833 10.4158 29.9101 8.81589C29.8374 7.21955 29.5838 6.12873 29.2128 5.17486C28.8294 4.18823 28.3167 3.35166 27.4825 2.51806C26.6483 1.68387 25.8123 1.17121 24.8257 0.78775C23.8719 0.416799 22.781 0.163147 21.1847 0.0905049C19.5848 0.0172674 19.0739 0 15 0Z" fill="white"/>
<path d="M15.0001 7.29755C10.7457 7.29755 7.29761 10.7463 7.29761 15C7.29761 19.2537 10.7463 22.7024 15.0001 22.7024C19.2538 22.7024 22.7025 19.2537 22.7025 15C22.7025 10.7463 19.2538 7.29755 15.0001 7.29755ZM15.0001 20.0004C12.2385 20.0004 10.0003 17.7616 10.0003 15.0006C10.0003 12.2396 12.2391 10.0008 15.0001 10.0008C17.761 10.0008 19.9999 12.2396 19.9999 15.0006C19.9999 17.7616 17.761 20.0004 15.0001 20.0004Z" fill="white"/>
<path d="M23.0073 8.7927C24.0013 8.7927 24.8072 7.98682 24.8072 6.99273C24.8072 5.99863 24.0013 5.19275 23.0073 5.19275C22.0132 5.19275 21.2073 5.99863 21.2073 6.99273C21.2073 7.98682 22.0132 8.7927 23.0073 8.7927Z" fill="white"/>
</svg>
