<svg id="Layer_1" xmlns="http://www.w3.org/2000/svg" viewBox="28.01 28 39.99 40"><defs><style>.cls-1{fill:#fff;}.cls-2{fill:#20a056;}</style></defs><g id="Layer_2"><path class="cls-1" d="M53.42,38.53c-.88-.13-1.49-.95-1.37-1.83,.02-.12,.05-.24,.1-.35,.11-.3,.02-.65-.23-.85-.54-.45-1.15-.81-1.82-1.05-.31-.11-.66-.02-.86,.24-.55,.7-1.56,.82-2.26,.28-.1-.08-.19-.17-.28-.28-.2-.26-.55-.35-.86-.24-.61,.23-1.18,.54-1.69,.95-.26,.21-.36,.57-.24,.88,.34,.82-.06,1.76-.88,2.1-.14,.06-.3,.1-.46,.11-.34,.04-.61,.29-.67,.62-.08,.38-.11,.77-.11,1.15,0,.33,.03,.65,.08,.97,.05,.34,.33,.6,.67,.64,.88,.08,1.54,.87,1.45,1.75-.02,.18-.06,.36-.14,.52-.14,.31-.06,.68,.21,.9,.53,.44,1.15,.79,1.8,1.04,.08,.03,.17,.05,.26,.05,.24,0,.48-.12,.62-.32,.3-.43,.79-.69,1.32-.69s.99,.24,1.3,.65c.2,.28,.57,.38,.89,.25,.6-.24,1.15-.58,1.65-.99,.25-.21,.34-.56,.22-.87-.34-.82,.04-1.76,.86-2.11,.14-.06,.29-.1,.43-.11,.33-.05,.59-.3,.65-.62,.07-.34,.1-.69,.11-1.04,0-.37-.04-.74-.1-1.1-.06-.32-.31-.57-.63-.62h0Zm-3.39,1.7c0,1.14-.92,2.06-2.06,2.06s-2.06-.92-2.06-2.06,.92-2.06,2.06-2.06,2.06,.92,2.06,2.06Z"></path></g><path class="cls-1" d="M66.67,40h-2.67c-.74,0-1.33,.6-1.33,1.33s.6,1.33,1.33,1.33h2.67c.74,0,1.33-.6,1.33-1.33s-.6-1.33-1.33-1.33Z"></path><path class="cls-1" d="M62.67,36.67c.24,0,.46-.06,.67-.17l2.31-1.33c.64-.37,.86-1.19,.49-1.83-.37-.64-1.19-.86-1.83-.49l-2.31,1.33c-.64,.36-.87,1.18-.5,1.82,.24,.42,.68,.68,1.17,.67Z"></path><path class="cls-1" d="M65.64,47.51l-2.31-1.33c-.64-.37-1.46-.15-1.83,.49-.37,.64-.15,1.46,.49,1.83l2.31,1.33c.64,.37,1.46,.15,1.83-.49,.37-.64,.15-1.46-.49-1.83h0Z"></path><path class="cls-1" d="M33.34,41.33c0-.74-.6-1.33-1.33-1.33h-2.67c-.74,0-1.33,.6-1.33,1.33s.6,1.33,1.33,1.33h2.67c.74,0,1.33-.6,1.33-1.33h0Z"></path><path class="cls-1" d="M34,34.17l-2.31-1.33c-.64-.37-1.46-.15-1.83,.49s-.15,1.46,.49,1.83l2.31,1.33c.64,.37,1.46,.15,1.83-.49,.37-.64,.15-1.46-.49-1.83Z"></path><path class="cls-1" d="M32.67,46.17l-2.31,1.33c-.64,.37-.86,1.19-.49,1.83s1.19,.86,1.83,.49l2.31-1.33c.64-.37,.86-1.19,.49-1.83s-1.19-.86-1.83-.49h0Z"></path><path class="cls-1" d="M48,28c-7,0-12.66,5.68-12.66,12.68,0,4.09,1.99,7.93,5.32,10.31v3.68c0,.74,.6,1.33,1.33,1.33s1.33-.6,1.33-1.33v-4.4c0-.46-.24-.89-.63-1.13-4.69-2.93-6.11-9.09-3.19-13.78,2.93-4.69,9.09-6.11,13.78-3.19,4.69,2.93,6.11,9.09,3.19,13.78-.81,1.29-1.9,2.38-3.19,3.19-.39,.24-.63,.67-.63,1.13v4.4c0,.74,.6,1.33,1.33,1.33s1.33-.6,1.33-1.33v-3.68c5.7-4.06,7.03-11.97,2.98-17.67-2.36-3.33-6.2-5.32-10.3-5.32Z"></path><path class="cls-2" d="M40,60h2v2.67c0,.74,.6,1.33,1.33,1.33h9.33c.74,0,1.33-.6,1.33-1.33v-2.67h2c.74,0,1.33-.6,1.33-1.33s-.6-1.33-1.33-1.33h-16c-.74,0-1.33,.6-1.33,1.33s.6,1.33,1.33,1.33Z"></path><path class="cls-2" d="M46.67,65.34h2.67c.74,0,1.33,.6,1.33,1.33h0c0,.74-.6,1.33-1.33,1.33h-2.67c-.74,0-1.33-.6-1.33-1.33h0c0-.74,.6-1.33,1.33-1.33Z"></path></svg>
