<svg id="Layer_1" xmlns="http://www.w3.org/2000/svg" viewBox="28 30.62 40 34.74"><defs><style>.cls-1{fill:#fff;}.cls-2{fill:#20a056;}</style></defs><g id="_層_3"><g><g><circle class="cls-2" cx="47.93" cy="35.29" r="4.67"></circle><path class="cls-1" d="M64.28,48.13l-4.35-.91c-1.48-.31-2.95,.37-3.72,1.58-.75-.39-1.56-.72-2.42-1v-2.59c0-1.96-1.6-3.56-3.55-3.56h-4.45c-1.96,0-3.56,1.6-3.56,3.56v2.6c-.85,.27-1.65,.61-2.41,.99-.78-1.21-2.24-1.9-3.72-1.59l-4.36,.91c-1.91,.4-3.15,2.3-2.75,4.22l1.09,5.22c.4,1.91,2.29,3.16,4.21,2.75l1.38-.29c.69,1.02,1.65,1.96,2.87,2.75,2.55,1.67,5.91,2.59,9.48,2.59,5.46,0,10.16-2.19,12.33-5.35l1.4,.29c1.91,.4,3.81-.84,4.21-2.75l1.1-5.22c.4-1.92-.84-3.82-2.76-4.22h0Zm-16.28,15.47c-3.22,0-6.25-.81-8.5-2.3-.77-.5-1.41-1.07-1.93-1.67l1.06-.22c1.92-.4,3.16-2.29,2.76-4.21l-.98-4.7c.57-.31,1.17-.58,1.81-.81v.86c0,1.96,1.6,3.56,3.56,3.56h4.45c1.96,0,3.55-1.6,3.55-3.56v-.9c.65,.23,1.26,.5,1.83,.8l-.99,4.75c-.4,1.92,.84,3.81,2.76,4.21l1.07,.22c-1.99,2.35-5.92,3.96-10.44,3.96h0Z"></path><circle class="cls-1" cx="63.33" cy="41.43" r="4.67"></circle><path class="cls-1" d="M33.63,46c2.53-.53,4.14-3.01,3.62-5.53-.53-2.52-3.01-4.14-5.53-3.61-2.53,.52-4.15,3-3.62,5.53,.53,2.53,3,4.15,5.53,3.62h0Z"></path></g><rect class="cls-2" x="42.25" y="41.66" width="11.9" height="12.72" rx="1.71" ry="1.71"></rect></g></g></svg>
