<svg id="Layer_1" xmlns="http://www.w3.org/2000/svg" viewBox="28 28.01 40 39.98"><defs><style>.cls-1{fill:#fff;}.cls-2{fill:#20a056;}</style></defs><path class="cls-1" d="M65,34.38c-3.02-.52-10.47-1.22-16.24-1.22h-1.48c-5.58,0-12.75,.66-15.94,1.17-.28,2.05-.53,6.27-.53,8.83,0,2.92,.33,7.98,.65,9.55,.57,2.59,3.08,4.96,5.68,5.46,1.33,.27,6.16,.59,9.4,.66v3.38l-5.08,3.03c-.7,.42-.93,1.33-.51,2.03,.42,.7,1.33,.93,2.03,.51l5.05-3.01,5.05,3.01c.7,.42,1.62,.19,2.03-.51,.42-.7,.19-1.62-.51-2.03h0l-5.08-3.03v-3.38c3.23-.06,8.33-.39,9.7-.67,2.59-.51,5.1-2.87,5.68-5.46,.33-1.57,.65-6.63,.65-9.55,0-2.54-.25-6.7-.53-8.78h0Zm-17.09,12.48c-.07,.34-.35,.61-.7,.66-.16,.02-.32,.06-.47,.13-.88,.37-1.3,1.38-.97,2.23,.11,.34,0,.7-.27,.92-.53,.45-1.11,.82-1.74,1.1-.32,.15-.7,.04-.91-.25-.31-.43-.81-.68-1.33-.68s-1.06,.27-1.36,.73c-.14,.21-.38,.34-.63,.33-.09,0-.18-.02-.27-.06-.69-.28-1.33-.67-1.9-1.15-.29-.23-.39-.61-.26-.95,.07-.17,.12-.36,.13-.54,.05-.94-.65-1.76-1.58-1.86-.36-.04-.66-.31-.73-.67-.06-.33-.09-.66-.09-1,0-.4,.05-.8,.13-1.19,.08-.35,.37-.6,.72-.65,.17-.02,.34-.06,.49-.13,.88-.37,1.32-1.37,.99-2.22-.11-.34,0-.71,.29-.93,.54-.44,1.14-.8,1.78-1.06,.31-.13,.68-.04,.88,.23,.55,.72,1.58,.87,2.3,.32,.12-.09,.23-.2,.32-.32,.2-.27,.57-.37,.88-.23,.7,.28,1.35,.68,1.92,1.17,.27,.22,.38,.58,.27,.9-.04,.12-.07,.24-.08,.37-.09,.95,.56,1.8,1.5,1.95,.34,.05,.62,.31,.69,.65,.16,.73,.16,1.48,0,2.2h0Zm7.58,2.82h-3.7c-.82,0-1.49-.67-1.49-1.49s.67-1.49,1.49-1.49h3.71c.82,0,1.49,.67,1.49,1.49s-.67,1.49-1.49,1.49h0Zm4.3-5.56h-8.01c-.82,0-1.49-.67-1.49-1.49s.67-1.49,1.49-1.49h8.01c.82,0,1.49,.67,1.49,1.49s-.67,1.49-1.49,1.49h0Z"></path><path class="cls-1" d="M41.42,43.58c-1.21,0-2.2,.98-2.2,2.2s.98,2.2,2.2,2.2,2.2-.98,2.2-2.2c0-1.21-.99-2.19-2.2-2.2Z"></path><path class="cls-2" d="M66.13,33.13c-.12,0-.25-.01-.37-.04-2.93-.59-11.66-1.41-17.73-1.34h-.04c-6.08-.07-14.81,.75-17.73,1.34-1.01,.21-2-.45-2.22-1.46-.21-1.01,.45-2,1.46-2.21h.02c3.44-.69,12.64-1.47,18.49-1.41,2.79-.03,6.42,.12,10.24,.42,3.49,.28,6.58,.65,8.26,.98,1.01,.21,1.66,1.21,1.45,2.22-.18,.86-.94,1.49-1.82,1.49h0Z"></path></svg>
