<svg width="30" height="30" viewBox="0 0 30 30" fill="none" xmlns="http://www.w3.org/2000/svg">
<g clip-path="url(#clip0_71_440)">
<path d="M15 0C6.7249 0 0 6.7249 0 15C0 23.2751 6.7249 30 15 30C23.2751 30 30 23.2745 30 15C30 10.3065 27.8351 6.11265 24.4524 3.36061C24.4127 3.3202 24.368 3.28469 24.3208 3.25408C21.7598 1.21776 18.5204 0 15 0ZM17.8304 1.90959C19.6482 2.29959 21.3282 3.05633 22.789 4.10082C22.5129 4.47367 22.2086 4.8251 21.8773 5.14898C21.6704 5.35163 21.4512 5.54327 21.2247 5.72449C20.2978 4.28878 19.1486 2.99755 17.8304 1.90959ZM12.1531 1.91265C10.6824 3.12735 9.42306 4.5949 8.44714 6.23388C8.11959 6.06122 7.79694 5.87816 7.48224 5.68347C7.06286 5.42388 6.65449 5.14469 6.25898 4.84959C7.91755 3.42061 9.93184 2.39143 12.1531 1.91265ZM14.1973 2.38163V7.8802C12.7408 7.80735 11.2916 7.46571 9.91592 6.91531C11.0082 5.13 12.4776 3.57061 14.1973 2.38163ZM15.802 2.38714C17.4214 3.50816 18.8186 4.95673 19.8869 6.61347C18.6416 7.29551 17.2347 7.71245 15.802 7.84714V2.38653V2.38714ZM24.0398 5.11347C26.5329 7.39163 28.1571 10.6016 28.369 14.198H23.8451C23.7808 12.2314 23.3829 10.2765 22.6396 8.44408C22.4584 7.99714 22.2569 7.55878 22.0371 7.13082C22.3745 6.87367 22.6984 6.5951 23.0039 6.29571C23.3798 5.92776 23.7251 5.53286 24.0398 5.11347ZM5.09388 5.98163C5.5898 6.36184 6.10347 6.71878 6.63551 7.04755C6.9802 7.26061 7.33408 7.46204 7.69408 7.65245C7.57163 7.91265 7.45592 8.17653 7.34755 8.44347C6.60429 10.2753 6.20633 12.2302 6.14327 14.1973H1.63408C1.8202 11.0376 3.09673 8.17531 5.09449 5.98163H5.09388ZM20.6853 8.01122C20.8549 8.34918 21.011 8.69388 21.1531 9.04408C21.8149 10.6757 22.1724 12.4292 22.2349 14.1973H15.802V9.45735C17.5041 9.31959 19.1871 8.83776 20.6853 8.01122ZM9.14878 8.33694C10.7486 8.99816 12.4549 9.41082 14.1973 9.48673V14.1973H7.75714C7.81959 12.4292 8.17592 10.6757 8.83776 9.04408C8.93449 8.80592 9.03918 8.56959 9.14878 8.33694ZM1.63408 15.802H6.16714C6.2602 17.3467 6.55714 18.8798 7.05551 20.3461C7.25694 20.9376 7.48959 21.5173 7.75224 22.0831C7.37204 22.282 6.99918 22.4945 6.63612 22.7192C6.06 23.0761 5.50408 23.4637 4.9702 23.8806C3.04408 21.7047 1.81653 18.8957 1.63469 15.802H1.63408ZM7.77918 15.802H14.1973V20.28C12.4776 20.3547 10.7927 20.7576 9.21061 21.4041C8.97122 20.8904 8.75939 20.3645 8.57755 19.8282C8.13673 18.5308 7.86918 17.1716 7.77918 15.802ZM15.802 15.802H22.2122C22.1222 17.1722 21.8547 18.5308 21.4139 19.8282C21.1941 20.4759 20.9302 21.109 20.6271 21.7231C19.1443 20.9161 17.4827 20.4441 15.8027 20.3082V15.8014L15.802 15.802ZM23.8231 15.802H28.369C28.1602 19.3482 26.5763 22.5196 24.142 24.7935C23.8004 24.322 23.4208 23.8794 23.0039 23.471C22.6837 23.1576 22.3427 22.8673 21.9882 22.5992C22.3555 21.8718 22.6739 21.1194 22.9359 20.3467C23.4343 18.8798 23.7312 17.3467 23.8231 15.8027V15.802ZM14.1967 21.8865V27.5522C12.4978 26.2782 11.0516 24.6594 9.96551 22.8312C11.3265 22.2931 12.758 21.9582 14.1967 21.8865ZM15.8014 21.9202C17.2169 22.0531 18.608 22.4633 19.8422 23.1306C18.7806 24.8333 17.4037 26.3431 15.8014 27.5461V21.9202ZM8.49367 23.5078C9.50633 25.2514 10.8141 26.8218 12.3471 28.1327C9.98388 27.6594 7.84714 26.5653 6.11327 25.0273C6.55408 24.6912 7.0102 24.3759 7.48102 24.0845C7.81102 23.88 8.14959 23.6878 8.49367 23.5084V23.5078ZM21.1886 24.0141C21.428 24.2033 21.6582 24.4047 21.8761 24.6178C22.252 24.9863 22.5949 25.3904 22.8992 25.8208C21.3618 26.9443 19.5765 27.7482 17.6382 28.1345C19.0224 26.9516 20.2225 25.5569 21.188 24.0141H21.1886Z" fill="black"/>
</g>
<defs>
<clipPath id="clip0_71_440">
<rect width="30" height="30" fill="white"/>
</clipPath>
</defs>
</svg>
