<svg width="30" height="30" viewBox="0 0 30 30" fill="none" xmlns="http://www.w3.org/2000/svg">
<g clip-path="url(#clip0_35_370)">
<rect width="30" height="30" fill="white"/>
<path d="M28.3443 0H1.65574C0.741299 0 0 0.741299 0 1.65574V28.3443C0 29.2587 0.741299 30 1.65574 30H28.3443C29.2587 30 30 29.2587 30 28.3443V1.65574C30 0.741299 29.2587 0 28.3443 0Z" fill="white"/>
<path d="M20.6995 30V18.3817H24.5988L25.1822 13.854H20.6984V10.9629C20.6984 9.65227 21.0625 8.75864 22.942 8.75864H25.3396V4.70753C24.9248 4.65246 23.5018 4.52881 21.846 4.52881C18.3895 4.52881 16.0223 6.63867 16.0223 10.5133V13.8529H12.1128V18.3806H16.0223V29.9988H20.6984L20.6995 30Z" fill="#20A056"/>
</g>
<defs>
<clipPath id="clip0_35_370">
<rect width="30" height="30" fill="white"/>
</clipPath>
</defs>
</svg>
