<svg id="Layer_1" xmlns="http://www.w3.org/2000/svg" viewBox="27.99 28 39.99 40.01"><defs><style>.cls-1{fill:#fff;}.cls-2{fill:#20a056;}</style></defs><g id="_層_3"><g><path class="cls-1" d="M38.88,67.98h-10.22c-.37,0-.67-.3-.67-.67v-3.91c0-2.38,1.79-4.35,4.1-4.63-.68-.73-1.1-1.71-1.1-2.78v-1.6c0-2.23,1.77-4.1,4-4.15,2.29-.04,4.16,1.8,4.16,4.08v1.66c0,1.07-.42,2.05-1.09,2.78,.76,.08,1.47,.35,2.07,.76,.29,.19,.39,.58,.21,.89-.51,.88-.81,1.9-.8,3,0,2.41-.01,3.38,0,3.9,0,.38-.29,.68-.66,.68h0Z"/><path class="cls-1" d="M63.88,58.77c.68-.73,1.1-1.71,1.1-2.78v-1.66c0-2.28-1.87-4.12-4.16-4.08-2.23,.04-4,1.91-4,4.15v1.6c0,1.07,.42,2.05,1.09,2.78-.76,.08-1.47,.35-2.07,.76-.29,.19-.39,.58-.21,.89,.51,.88,.81,1.9,.8,3,0,2.41,.01,3.38,0,3.9,0,.38,.29,.68,.66,.68h10.22c.37,0,.67-.3,.67-.67v-3.91c0-2.38-1.79-4.35-4.1-4.63h0Z"/><path class="cls-1" d="M50.97,58.77c.68-.73,1.09-1.71,1.09-2.78v-1.66c0-2.25-1.83-4.08-4.08-4.08s-4.08,1.83-4.08,4.08v1.66c0,1.07,.42,2.05,1.09,2.78-2.32,.27-4.12,2.24-4.12,4.63v3.91c0,.37,.3,.67,.67,.67h12.88c.37,0,.67-.3,.67-.67v-3.91c0-2.39-1.8-4.36-4.12-4.63h0Z"/><path class="cls-2" d="M57.38,48.86c.68-.73,1.09-1.71,1.09-2.78v-1.66c0-2.28-1.87-4.12-4.16-4.08-2.23,.04-4,1.91-4,4.15v1.6c0,1.07,.42,2.05,1.09,2.78-.24,.03-.48,.07-.7,.13-.29,.08-.34,.47-.08,.61,1.63,.92,2.77,2.68,2.76,4.72,0,1.39,.09,2.21-.23,3.24-.06,.21,.09,.43,.32,.43h1.91c.22,0,.38-.22,.32-.43-.36-1.19-.2-2.12-.23-3.23-.04-2.01,1.1-3.77,2.74-4.7,.26-.14,.2-.52-.08-.61-.24-.07-.5-.12-.76-.15h0Z"/><path class="cls-2" d="M45.24,49.01c-.25-.07-.5-.12-.76-.15,.68-.73,1.09-1.7,1.09-2.78v-1.66c0-2.28-1.87-4.12-4.16-4.08-2.23,.04-4,1.91-4,4.15v1.6c0,1.07,.42,2.05,1.1,2.78-.24,.03-.47,.07-.69,.14-.28,.08-.34,.47-.08,.61,1.64,.93,2.75,2.7,2.75,4.71-.07,.99,.15,1.97-.23,3.23-.06,.21,.09,.43,.32,.43h1.91c.22,0,.39-.21,.32-.43-.39-1.27-.17-2.27-.23-3.24,0-2.02,1.11-3.78,2.75-4.71,.26-.15,.2-.53-.08-.61h0Z"/><path class="cls-1" d="M54.37,38.74c-.73-1.19-1.99-2.04-3.44-2.2,.68-.73,1.09-1.71,1.09-2.78v-1.66c0-2.28-1.87-4.13-4.16-4.09-2.23,.04-4,1.91-4,4.15v1.6c0,1.07,.42,2.05,1.09,2.78-1.39,.16-2.6,.94-3.34,2.05-.1,.16,0,.31,0,.29,.13,.23,.31,.06,1.23,.29,2.34,.6,4.07,2.72,4.07,5.24v.67c0,.37,.3,.67,.67,.67h.75c.37,0,.67-.3,.67-.67v-.67c0-2.94,2.35-5.32,5.23-5.41,.14,0,.21-.16,.15-.27h0Z"/><path class="cls-1" d="M41.43,38.58c-.74-1.11-1.95-1.89-3.34-2.05,.68-.73,1.09-1.71,1.09-2.78v-1.66c0-2.28-1.87-4.12-4.16-4.08-2.23,.04-4,1.92-4,4.15v1.6c0,1.07,.42,2.05,1.09,2.78-2.32,.27-4.12,2.24-4.12,4.63v3.91c0,.37,.3,.67,.67,.67h6.74c.37,0,.67-.3,.67-.67v-.67c0-2.54,1.76-4.68,4.12-5.26,.92-.23,1.11-.05,1.24-.28,.06-.11,.03-.22,0-.29h0Z"/><path class="cls-1" d="M63.88,36.53c.68-.73,1.09-1.71,1.09-2.78v-1.66c0-2.28-1.87-4.13-4.16-4.09-2.23,.04-4,1.91-4,4.15v1.6c0,1.07,.42,2.05,1.09,2.78-1.46,.17-2.71,1.01-3.44,2.2-.07,.11,0,.26,.14,.27,2.87,.11,5.19,2.49,5.19,5.41v.67c0,.37,.3,.67,.67,.67h6.85c.37,0,.67-.3,.67-.67v-3.91c0-2.39-1.8-4.36-4.12-4.63h0Z"/></g></g></svg>
